<?xml version="1.0" standalone="no"?>
<!DOCTYPE svg PUBLIC "-//W3C//DTD SVG 20010904//EN"
 "http://www.w3.org/TR/2001/REC-SVG-20010904/DTD/svg10.dtd">
<svg version="1.0" xmlns="http://www.w3.org/2000/svg"
 width="143.000000pt" height="143.000000pt" viewBox="0 0 143.000000 143.000000"
 preserveAspectRatio="xMidYMid meet">
<metadata>
Created by potrace 1.11, written by Peter Selinger 2001-2013
</metadata>
<g transform="translate(0.000000,143.000000) scale(0.100000,-0.100000)"
fill="#000000" stroke="none">
<path d="M595 1046 c-42 -18 -76 -42 -113 -81 -29 -31 -50 -60 -48 -64 3 -4
-1 -8 -9 -8 -10 0 -11 5 -4 19 9 16 7 18 -15 14 -19 -3 -24 -1 -21 14 9 46
-60 90 -141 90 -41 0 -51 -5 -82 -37 -57 -61 -76 -114 -79 -223 -2 -76 2 -104
17 -137 19 -43 72 -103 91 -103 5 0 14 -11 21 -25 8 -19 15 -22 29 -15 14 8
17 6 15 -15 -2 -13 0 -24 3 -23 17 2 31 -4 45 -18 9 -9 21 -12 28 -8 18 11 48
12 42 2 -4 -5 -12 -7 -20 -4 -8 3 -11 0 -7 -9 4 -11 10 -12 23 -5 25 13 30 13
26 -2 -1 -7 -1 -9 2 -5 2 5 14 0 25 -10 19 -16 20 -16 8 0 -8 10 -9 17 -3 17
6 0 19 3 29 7 15 6 16 4 6 -8 -10 -12 -8 -15 7 -15 10 0 16 4 14 8 -3 4 0 8 6
8 6 0 8 4 5 10 -3 6 1 7 9 4 9 -3 14 -10 11 -14 -3 -5 -1 -11 4 -14 5 -4 8 2
7 11 -3 21 15 43 29 35 6 -3 3 3 -5 13 -14 17 -14 18 10 5 l25 -13 -23 25
c-16 18 -18 25 -8 25 8 0 12 -5 9 -10 -3 -5 0 -7 8 -5 14 5 69 -17 69 -28 0
-3 -4 -2 -10 1 -5 3 -10 1 -10 -5 0 -7 6 -10 14 -7 8 3 24 -3 36 -13 13 -11
27 -17 31 -14 5 3 9 -1 9 -8 1 -7 7 -2 16 12 l15 25 -7 -25 c-6 -23 -6 -24 11
-10 11 8 16 10 12 4 -4 -7 2 -11 18 -11 14 0 22 4 19 8 -3 5 -2 9 3 8 22 -4
34 2 27 14 -5 8 -2 8 9 -2 17 -14 24 -26 9 -17 -15 9 -31 -9 -22 -24 8 -13 10
-12 10 2 0 12 6 16 21 13 15 -3 19 0 15 10 -3 9 1 15 9 15 8 0 15 5 15 10 0 6
3 9 8 9 4 -1 16 -1 27 0 18 2 18 3 -3 12 -13 5 -28 7 -33 3 -5 -3 -9 -3 -9 0
0 6 55 36 65 36 3 0 3 -5 -1 -11 -5 -9 1 -10 22 -5 23 5 26 4 14 -4 -11 -9
-12 -13 -2 -17 6 -2 9 -10 6 -15 -4 -6 -2 -8 4 -4 12 7 62 -13 62 -25 0 -4 9
-5 20 -2 11 3 18 9 15 12 -2 4 2 8 10 8 8 0 12 -4 9 -9 -9 -14 9 -9 30 10 19
15 19 15 7 0 -14 -19 -6 -42 14 -34 7 2 18 -1 25 -7 10 -9 11 -9 6 1 -5 8 0
12 13 12 11 0 19 6 17 13 -1 6 -1 9 1 5 3 -5 9 -8 14 -8 6 0 8 4 5 9 -4 5 4 7
16 5 13 -2 17 -2 11 2 -7 3 -13 10 -13 15 0 6 8 5 20 -1 11 -6 20 -7 19 -3 -4
22 2 34 14 27 9 -6 9 -4 -1 8 -11 14 -10 18 5 28 17 11 17 11 -1 6 -14 -5 -17
-2 -12 10 3 8 6 18 6 20 0 3 4 3 8 0 5 -3 9 1 9 9 0 13 -3 13 -17 0 -15 -14
-16 -13 -15 7 1 13 -3 26 -9 30 -8 5 -7 8 2 8 19 0 14 19 -5 19 -45 1 -50 4
-45 28 2 13 -2 31 -9 40 -10 12 -10 14 -1 9 8 -4 12 -1 12 9 0 12 -5 15 -17
10 -14 -5 -15 -3 -6 6 6 6 9 17 7 23 -3 7 12 20 31 29 24 11 34 21 29 30 -6 9
-5 9 8 0 17 -15 29 -7 21 13 -3 8 1 22 8 31 8 9 9 14 2 10 -17 -11 -29 53 -12
65 10 6 7 7 -9 3 -21 -6 -23 -4 -17 17 7 22 7 23 -8 3 l-16 -20 2 20 c1 14 -4
20 -16 18 -11 0 -16 4 -13 12 2 7 -13 32 -34 55 l-39 42 -73 -4 c-79 -4 -163
-36 -207 -78 -13 -13 -22 -17 -19 -10 2 7 -11 29 -29 49 -30 33 -37 36 -100
38 -55 3 -80 -1 -128 -21z m-169 -178 c3 -4 -1 -5 -10 -4 -8 1 -18 5 -22 8 -3
4 1 5 10 4 8 -1 18 -5 22 -8z m868 -33 c-4 -8 -11 -15 -16 -15 -6 0 -5 6 2 15
7 8 14 15 16 15 2 0 1 -7 -2 -15z m-133 -12 c13 -16 12 -17 -3 -4 -10 7 -18
15 -18 17 0 8 8 3 21 -13z m-786 -13 c3 -6 -1 -7 -9 -4 -18 7 -21 14 -7 14 6
0 13 -4 16 -10z m800 -21 c11 -16 1 -19 -13 -3 -7 8 -8 14 -3 14 5 0 13 -5 16
-11z m28 -4 c4 -8 3 -16 -1 -19 -4 -3 -9 4 -9 15 -2 23 3 25 10 4z m-796 -20
c0 -8 -4 -12 -9 -9 -5 3 -6 10 -3 15 9 13 12 11 12 -6z m-46 -22 c13 -16 12
-17 -3 -4 -10 7 -18 15 -18 17 0 8 8 3 21 -13z m823 1 c3 -8 2 -12 -4 -9 -6 3
-10 10 -10 16 0 14 7 11 14 -7z m-281 -229 c-3 -9 -8 -14 -10 -11 -3 3 -2 9 2
15 9 16 15 13 8 -4z m337 -1 c0 -8 -19 -13 -24 -6 -3 5 1 9 9 9 8 0 15 -2 15
-3z m-755 -33 c3 -5 2 -12 -3 -15 -5 -3 -9 1 -9 9 0 17 3 19 12 6z m41 -14 c0
-13 -6 -24 -13 -24 -6 0 -9 5 -5 11 4 6 7 14 8 19 5 26 10 23 10 -6z m-229 -2
c0 -8 -4 -12 -9 -9 -5 3 -6 10 -3 15 9 13 12 11 12 -6z m720 0 c0 -8 -4 -12
-9 -9 -4 3 -8 9 -8 15 0 5 4 9 8 9 5 0 9 -7 9 -15z m93 5 c0 -5 -5 -10 -11
-10 -5 0 -7 5 -4 10 3 6 8 10 11 10 2 0 4 -4 4 -10z m-783 -25 c0 -8 -4 -12
-9 -9 -4 3 -8 9 -8 15 0 5 4 9 8 9 5 0 9 -7 9 -15z m118 -4 c3 -5 2 -12 -3
-15 -5 -3 -9 1 -9 9 0 17 3 19 12 6z m252 -6 c0 -8 -4 -12 -9 -9 -5 3 -6 10
-3 15 9 13 12 11 12 -6z m373 11 c0 -3 -4 -8 -10 -11 -5 -3 -10 -1 -10 4 0 6
5 11 10 11 6 0 10 -2 10 -4z m124 -14 c3 -5 -1 -9 -9 -9 -8 0 -12 4 -9 9 3 4
7 8 9 8 2 0 6 -4 9 -8z"/>
<path d="M1256 765 c-8 -9 -18 -16 -21 -15 -3 0 -5 -2 -5 -5 0 -3 0 -8 0 -12
0 -3 10 3 23 15 13 12 27 19 30 15 4 -3 7 -1 7 5 0 17 -16 15 -34 -3z"/>
<path d="M1240 635 c0 -7 30 -13 34 -7 3 4 -4 9 -15 9 -10 1 -19 0 -19 -2z"/>
<path d="M1299 608 c-5 -18 -6 -38 -1 -34 7 8 12 36 6 36 -2 0 -4 -1 -5 -2z"/>
<path d="M595 460 c-3 -5 -1 -10 4 -10 6 0 11 5 11 10 0 6 -2 10 -4 10 -3 0
-8 -4 -11 -10z"/>
<path d="M1080 410 c-9 -6 -10 -10 -3 -10 6 0 15 5 18 10 8 12 4 12 -15 0z"/>
<path d="M1106 402 c-3 -5 1 -9 9 -9 8 0 12 4 9 9 -3 4 -7 8 -9 8 -2 0 -6 -4
-9 -8z"/>
</g>
</svg>
